<?xml version='1.0' encoding='utf-8'?>
<svg xmlns="http://www.w3.org/2000/svg" viewBox="0 0 197 197"> <path d="m196 98a98 98 0 1 0-196 0 98 98 0 1 0 196 0"/> <path d="m176 98a78 78 0 1 0-156 0 78 78 0 1 0 156 0"/> <path transform="translate(6.53)" d="m77.46 98.79 35.01 52.71h27l-35.01-52.71h-27z"/> <path d="m123 85h31v25h-31z"/> <path transform="translate(13.32)" d="m50.16 139v-83.61"/> <path transform="matrix(.9,0,0,.88,-9.93,1)" d="m88.54 61.66h47.32c12.98 0 23.52 10.54 23.52 23.52s-10.54 23.51-23.52 23.51h-47.32"/> </svg>